<svg fill="#fff" height="800px" width="800px" version="1.1" id="Layer_1" xmlns="http://www.w3.org/2000/svg" xmlns:xlink="http://www.w3.org/1999/xlink"
	 viewBox="0 0 511.943 511.943" xml:space="preserve">
<g>
	<g>
		<path d="M492.814,240.733c-4.395-24.747-8.747-49.088-11.925-71.04c-8.427-58.347-27.733-95.296-57.365-109.824
			c-30.059-14.763-56.96-0.405-60.715,1.707c-50.624,31.403-88.107,28.437-88.256,28.395l-34.773-0.128l-2.155,0.107
			c-0.341,0.021-37.888,3.008-89.237-28.8c-2.987-1.685-29.973-16-59.968-1.28c-29.632,14.528-48.939,51.477-57.365,109.824
			c-3.179,21.952-7.531,46.293-11.925,71.04c-20.652,116.436-31.532,188.97,4.116,211.882c6.293,4.032,13.248,6.037,20.821,6.037
			c12.48,0,26.667-5.44,42.432-16.341c12.437-8.576,24.021-19.776,35.435-34.219l3.627-4.672
			c15.979-20.843,40.768-51.968,109.077-51.435h42.944c0.96,0,1.877-0.021,2.816-0.021c66.539,0,90.24,30.912,105.984,51.456
			l3.627,4.672c11.413,14.443,22.997,25.643,35.435,34.219c25.344,17.515,46.635,20.971,63.253,10.304
			C524.345,429.704,513.465,357.17,492.814,240.733z M213.305,245.32h-21.333v21.333c0,11.776-9.536,21.333-21.333,21.333
			s-21.333-9.557-21.333-21.333V245.32h-21.333c-11.797,0-21.333-9.557-21.333-21.333s9.536-21.333,21.333-21.333h21.333V181.32
			c0-11.776,9.536-21.333,21.333-21.333s21.333,9.557,21.333,21.333v21.333h21.333c11.797,0,21.333,9.557,21.333,21.333
			S225.102,245.32,213.305,245.32z M319.971,245.32c-11.776,0-21.333-9.557-21.333-21.333s9.557-21.333,21.333-21.333
			s21.333,9.557,21.333,21.333S331.747,245.32,319.971,245.32z M362.638,287.986c-11.776,0-21.333-9.557-21.333-21.333
			c0-11.776,9.557-21.333,21.333-21.333s21.333,9.557,21.333,21.333C383.971,278.429,374.414,287.986,362.638,287.986z
			 M362.638,202.652c-11.776,0-21.333-9.557-21.333-21.333s9.557-21.333,21.333-21.333s21.333,9.557,21.333,21.333
			S374.414,202.652,362.638,202.652z M405.305,245.32c-11.776,0-21.333-9.557-21.333-21.333s9.557-21.333,21.333-21.333
			s21.333,9.557,21.333,21.333S417.081,245.32,405.305,245.32z"/>
	</g>
</g>
</svg>
