<svg xmlns="http://www.w3.org/2000/svg" width="50" height="60" viewBox="0 0 50 50" fill="none">
    <circle cx="22" cy="22" r="22" fill="url(#paint0_linear_1_162)"/>
    <path d="M12.8078 19.3924C12.8078 19.9376 13.1406 20.2732 13.699 20.2732H15.6318V22.1082C15.6318 22.6429 15.9432 22.9784 16.4801 22.9784C17.0062 22.9784 17.3284 22.6429 17.3284 22.1082V20.2732H19.1431C19.7444 20.2732 20.0987 19.9376 20.0987 19.3924C20.0987 18.8681 19.7444 18.543 19.1431 18.543H17.3284V16.7081C17.3284 16.1733 17.0062 15.8482 16.4801 15.8482C15.9432 15.8482 15.6318 16.1733 15.6318 16.7081V18.543H13.699C13.1406 18.543 12.8078 18.8681 12.8078 19.3924ZM28.1735 19.2561C29.0541 19.2561 29.7198 18.606 29.7198 17.7566C29.7198 16.8968 29.0541 16.2362 28.1735 16.2362C27.3145 16.2362 26.6273 16.8968 26.6273 17.7566C26.6273 18.606 27.3145 19.2561 28.1735 19.2561ZM25.0166 22.3703C25.8864 22.3703 26.5629 21.7097 26.5629 20.8604C26.5629 20.0005 25.8864 19.34 25.0166 19.34C24.1576 19.34 23.4704 20.0005 23.4704 20.8604C23.4704 21.7097 24.1576 22.3703 25.0166 22.3703ZM6 26.9526C6 29.4061 7.63215 31 10.0911 31C11.3367 31 12.5715 30.4758 13.4735 29.3852L15.417 27.0888C15.6962 26.7638 16.0184 26.6065 16.3405 26.6065H26.6595C26.9816 26.6065 27.3038 26.7638 27.583 27.0888L29.5265 29.3852C30.4285 30.4758 31.6633 31 32.9089 31C35.3679 31 37 29.4061 37 26.9526C37 25.904 36.7531 24.6981 36.3343 23.3455C35.6793 21.1959 34.5303 18.2704 33.4351 16.0055C32.5116 14.1181 32.0392 13.2583 29.7628 12.755C27.7441 12.3041 24.9415 12 21.5054 12C18.0693 12 15.256 12.3041 13.2373 12.755C10.9609 13.2583 10.4884 14.1181 9.56494 16.0055C8.46969 18.2704 7.32075 21.1959 6.66574 23.3455C6.24697 24.6981 6 25.904 6 26.9526ZM7.64288 27.0155C7.64288 26.3549 7.79321 25.558 8.13682 24.415C8.85626 22.0033 10.1018 18.8786 11.1864 16.5613C11.7125 15.4393 12.0024 14.7577 13.3983 14.4432C15.3419 13.9923 18.1123 13.6882 21.5054 13.6882C24.8878 13.6882 27.6581 13.9923 29.6017 14.4432C30.9976 14.7577 31.2767 15.4393 31.8137 16.5613C32.9197 18.8786 34.1116 22.0138 34.8632 24.415C35.2175 25.558 35.3572 26.3549 35.3572 27.0155C35.3572 28.4625 34.3155 29.3747 32.9304 29.3747C32.1143 29.3747 31.3197 28.9553 30.6969 28.2108L28.6782 25.8306C28.1628 25.2224 27.7334 24.9183 26.7347 24.9183H16.2653C15.2667 24.9183 14.8372 25.2224 14.3218 25.8306L12.3031 28.2108C11.6803 28.9553 10.8857 29.3747 10.0696 29.3747C8.68445 29.3747 7.64288 28.4625 7.64288 27.0155Z" fill="white"/>
    <defs>
      <linearGradient id="paint0_linear_1_162" x1="22" y1="0" x2="22" y2="44" gradientUnits="userSpaceOnUse">
        <stop stop-color="#00B4FF"/>
        <stop offset="1" stop-color="#0873F9"/>
      </linearGradient>
    </defs>
</svg>