<svg width="26" height="26" viewBox="0 0 26 26" fill="none" xmlns="http://www.w3.org/2000/svg">
<path d="M9.04075 8.39506H3.44405C1.70837 8.39506 0.295898 6.98259 0.295898 5.24691V3.14815C0.295898 1.41247 1.70837 0 3.44405 0H9.04075C10.7764 0 12.1889 1.41247 12.1889 3.14815V5.24691C12.1889 6.98259 10.7764 8.39506 9.04075 8.39506ZM9.04075 25.1852H3.44405C1.70837 25.1852 0.295898 23.7727 0.295898 22.037V12.9424C0.295898 11.2067 1.70837 9.79424 3.44405 9.79424H9.04075C10.7764 9.79424 12.1889 11.2067 12.1889 12.9424V22.037C12.1889 23.7727 10.7764 25.1852 9.04075 25.1852ZM22.3329 25.1852H16.7362C15.0005 25.1852 13.5881 23.7727 13.5881 22.037V19.9383C13.5881 18.2026 15.0005 16.7901 16.7362 16.7901H22.3329C24.0686 16.7901 25.4811 18.2026 25.4811 19.9383V22.037C25.4811 23.7727 24.0686 25.1852 22.3329 25.1852ZM22.3329 15.3909H16.7362C15.0005 15.3909 13.5881 13.9785 13.5881 12.2428V3.14815C13.5881 1.41247 15.0005 0 16.7362 0H22.3329C24.0686 0 25.4811 1.41247 25.4811 3.14815V12.2428C25.4811 13.9785 24.0686 15.3909 22.3329 15.3909Z" fill="white"/>
</svg>
