<svg width="321" height="137" viewBox="0 0 321 137" fill="none" xmlns="http://www.w3.org/2000/svg">
<path d="M28.7921 30.8423C26.8228 31.8563 26.1985 32.2081 25.326 32.7389C23.1772 34.0756 20.693 36.0598 18.8781 37.891C7.88631 48.9651 6.82639 65.2646 16.1221 80.0918C20.0129 86.278 25.8388 92.0232 31.5792 95.2913C33.0758 96.1552 36.4137 97.5741 37.9226 98.0107C43.134 99.4926 48.4083 99.4997 53.3322 98.026C55.8641 97.2783 56.549 97.2219 57.7371 97.6838C58.6852 98.0588 59.3162 98.6403 60.5952 100.333C63.9725 104.829 67.1605 109.652 69.3517 113.606C69.8053 114.429 70.4515 115.45 70.7855 115.887C73.0037 118.792 76.9264 119.989 80.551 118.862C81.6358 118.521 82.6225 117.933 84.1434 116.71C85.4909 115.624 85.8691 115.314 88.1308 113.487C89.7442 112.181 90.5207 111.38 91.0926 110.467C92.6347 107.98 92.8923 105.104 91.8251 102.425C91.2993 101.105 90.8123 100.341 89.9632 99.4699C88.7466 98.2205 87.9499 97.9105 86.9556 98.3073C86.1384 98.6333 85.6968 99.2432 85.6543 100.139C85.6161 100.816 85.8496 101.317 86.4983 101.914C87.5342 102.882 88.033 103.733 88.2342 104.897C88.4374 106.094 88.0556 107.627 87.3026 108.601C87.1054 108.851 85.5194 110.226 83.7818 111.649L80.6139 114.237L79.4857 114.699C78.4125 115.127 78.3062 115.147 77.5683 115.099C76.2341 115.015 74.9006 114.36 74.1343 113.41C73.9457 113.166 73.4095 112.307 72.9559 111.483C71.1063 108.158 68.6472 104.334 65.7574 100.316C62.6495 96.0092 62.0462 95.3254 60.5398 94.4083C59.4759 93.7713 58.1697 93.3566 56.865 93.2608C55.4994 93.1551 54.8026 93.239 53.1665 93.7434C52.4439 93.9632 51.6959 94.1476 51.4873 94.1395C50.6371 94.1249 49.8161 92.8088 49.59 91.0957C49.4692 90.1623 49.6072 88.418 49.8902 87.2093C50.1613 86.0853 51.2113 83.6804 51.9429 82.5096C54.0807 79.0543 57.7496 75.6045 62.0865 72.9724C65.4564 70.9202 67.6659 69.8789 72.3422 68.1272C78.1624 65.9534 77.871 66.0811 78.3617 65.5086C79.6271 64.045 79.7331 62.6787 78.858 59.0787C78.4175 57.257 76.5186 52.4904 75.5427 50.7568C69.6815 40.3118 61.1085 32.7979 51.4004 29.5947C48.485 28.6349 44.3314 27.9752 41.3478 27.99C39.1692 27.9917 36.3643 28.369 34.0747 28.9515C32.8837 29.2555 29.5582 30.4454 28.7921 30.8423Z" fill="white"/>
<path d="M87.5585 8.63768L87.6515 9.78757L86.5508 10.261L85.4599 10.7304L86.5085 10.9855C87.0869 11.1199 87.6063 11.2779 87.6495 11.3292C87.6927 11.3804 87.7727 11.8963 87.8192 12.4712C87.8559 13.0501 87.9202 13.5266 87.9478 13.5385C87.9753 13.5503 88.2612 13.1509 88.5708 12.6393C88.8902 12.1238 89.2155 11.7087 89.2922 11.7009C89.3729 11.703 89.8766 11.8216 90.4018 11.9658C90.9369 12.1062 91.3855 12.2011 91.3934 12.1637C91.4151 12.1322 91.1322 11.7657 90.7824 11.346C90.4228 10.9303 90.1144 10.5283 90.0869 10.4594C90.0594 10.3904 90.3001 9.90635 90.6255 9.37705L91.2191 8.4326L90.1342 8.8312L89.0396 9.23373L88.344 8.40416C87.9687 7.94899 87.6169 7.55291 87.5618 7.52923C87.5166 7.50162 87.512 8.00564 87.5585 8.63768Z" fill="white"/>
<path d="M65.1005 21.7629L65.1293 22.3221L64.5288 22.5617L63.9223 22.815L64.2666 22.9059C65.2345 23.1589 65.1716 23.1155 65.2278 23.7436C65.2628 24.0607 65.3137 24.3029 65.3531 24.2872C65.3826 24.2754 65.5344 24.055 65.6784 23.815C65.9604 23.3486 65.9702 23.3447 66.6352 23.5245C66.8673 23.5917 67.0601 23.6175 67.0818 23.586C67.0897 23.5486 66.9503 23.3417 66.7557 23.1112C66.3667 22.6501 66.3607 22.721 66.8853 21.8611L67.0726 21.5581L66.4583 21.7918L65.8578 22.0314L65.4943 21.6058C65.2958 21.3654 65.1209 21.1841 65.1012 21.1919C65.0815 21.1998 65.0792 21.4518 65.1005 21.7629Z" fill="white"/>
<path d="M90.1405 31.6944C87.1429 33.5638 85.2654 36.6984 85.009 40.2361C84.8589 42.2363 84.9995 43.0476 85.794 45.0704C86.3746 46.5279 86.5336 46.8411 87.0307 47.4874C88.5749 49.5306 90.7063 50.9857 93.0651 51.6082C99.7263 53.3789 106.305 48.6996 106.806 41.8229C107.018 39.0332 106.232 36.4592 104.525 34.2642C101.93 30.9284 97.5135 29.3805 93.3736 30.3588C92.3933 30.5902 90.9638 31.1833 90.1405 31.6944Z" fill="white"/>
<path d="M112.027 27.5851L112.085 28.2467L111.445 28.502L110.805 28.7573L111.36 28.8898C111.663 28.9629 111.96 29.0498 112.021 29.0597C112.076 29.0834 112.131 29.3926 112.154 29.7371C112.167 30.0856 112.2 30.3692 112.23 30.3574C112.259 30.3456 112.421 30.1213 112.594 29.8695C112.764 29.6078 112.949 29.3855 112.998 29.3659C113.048 29.3462 113.329 29.3938 113.622 29.4708C113.925 29.544 114.179 29.5797 114.187 29.5423C114.199 29.5147 114.067 29.3275 113.894 29.1226C113.448 28.6044 113.442 28.561 113.791 27.9767L114.107 27.4513L113.475 27.6692L112.853 27.8832L112.454 27.426C112.238 27.1699 112.047 26.9492 112.019 26.9373C111.992 26.9255 111.996 27.2208 112.027 27.5851Z" fill="white"/>
<path d="M110.234 87V61.793H124.033C128.111 61.793 130.15 63.8379 130.15 67.9277V71.5137C130.15 75.6035 128.111 77.6484 124.033 77.6484H113.838V87H110.234ZM113.838 74.0449H123.84C124.801 74.0449 125.492 73.834 125.914 73.4121C126.336 72.9902 126.547 72.2988 126.547 71.3379V68.1035C126.547 67.1426 126.336 66.4512 125.914 66.0293C125.492 65.6074 124.801 65.3965 123.84 65.3965H113.838V74.0449Z" fill="#219494"/>
<path d="M138.482 68.2793V87H135.02V68.2793H138.482ZM134.844 61.0723H138.658V64.6758H134.844V61.0723ZM161 87H157.537V71.7422H147.887V87H144.441V68.2793H147.887V71.584C147.91 71.127 148.016 70.6992 148.203 70.3008C148.391 69.8906 148.637 69.5391 148.941 69.2461C149.258 68.9414 149.621 68.707 150.031 68.543C150.441 68.3672 150.881 68.2793 151.35 68.2793H157.537C158.018 68.2793 158.469 68.373 158.891 68.5605C159.312 68.7363 159.676 68.9824 159.98 69.2988C160.297 69.6035 160.543 69.9668 160.719 70.3887C160.906 70.8105 161 71.2617 161 71.7422V87ZM166.766 71.7422C166.766 71.2617 166.854 70.8105 167.029 70.3887C167.217 69.9668 167.463 69.6035 167.768 69.2988C168.084 68.9824 168.453 68.7363 168.875 68.5605C169.297 68.373 169.742 68.2793 170.211 68.2793H176.416C176.873 68.2793 177.307 68.3672 177.717 68.543C178.127 68.707 178.484 68.9414 178.789 69.2461C179.105 69.5391 179.357 69.8906 179.545 70.3008C179.744 70.6992 179.85 71.127 179.861 71.584V68.2793H183.324V91.0957C183.324 91.5762 183.23 92.0273 183.043 92.4492C182.867 92.8711 182.621 93.2344 182.305 93.5391C182 93.8555 181.637 94.1016 181.215 94.2773C180.793 94.4648 180.342 94.5586 179.861 94.5586H168.928V91.0957H179.861V86.2793H170.211C169.742 86.2793 169.297 86.1914 168.875 86.0156C168.453 85.8281 168.084 85.582 167.768 85.2773C167.463 84.9609 167.217 84.5918 167.029 84.1699C166.854 83.748 166.766 83.2969 166.766 82.8164V71.7422ZM179.861 82.8164V71.7422H170.211V82.8164H179.861ZM205.279 83.5371C205.279 84.0176 205.186 84.4688 204.998 84.8906C204.822 85.3125 204.576 85.6816 204.26 85.998C203.955 86.3027 203.592 86.5488 203.17 86.7363C202.76 86.9121 202.314 87 201.834 87H192.535C192.066 87 191.621 86.9121 191.199 86.7363C190.777 86.5488 190.408 86.3027 190.092 85.998C189.787 85.6816 189.541 85.3125 189.354 84.8906C189.178 84.4688 189.09 84.0176 189.09 83.5371V71.7422C189.09 71.2617 189.178 70.8105 189.354 70.3887C189.541 69.9668 189.787 69.6035 190.092 69.2988C190.408 68.9824 190.777 68.7363 191.199 68.5605C191.621 68.373 192.066 68.2793 192.535 68.2793H201.834C202.314 68.2793 202.76 68.373 203.17 68.5605C203.592 68.7363 203.955 68.9824 204.26 69.2988C204.576 69.6035 204.822 69.9668 204.998 70.3887C205.186 70.8105 205.279 71.2617 205.279 71.7422V83.5371ZM192.535 71.7422V83.5371H201.834V71.7422H192.535ZM222.207 87V61.793H236.006C240.084 61.793 242.123 63.8379 242.123 67.9277V71.5137C242.123 75.6035 240.084 77.6484 236.006 77.6484H225.811V87H222.207ZM225.811 74.0449H235.812C236.773 74.0449 237.465 73.834 237.887 73.4121C238.309 72.9902 238.52 72.2988 238.52 71.3379V68.1035C238.52 67.1426 238.309 66.4512 237.887 66.0293C237.465 65.6074 236.773 65.3965 235.812 65.3965H225.811V74.0449ZM250.455 68.2793V87H246.992V68.2793H250.455ZM246.816 61.0723H250.631V64.6758H246.816V61.0723ZM272.973 87H269.51V71.7422H259.859V87H256.414V68.2793H259.859V71.584C259.883 71.127 259.988 70.6992 260.176 70.3008C260.363 69.8906 260.609 69.5391 260.914 69.2461C261.23 68.9414 261.594 68.707 262.004 68.543C262.414 68.3672 262.854 68.2793 263.322 68.2793H269.51C269.99 68.2793 270.441 68.373 270.863 68.5605C271.285 68.7363 271.648 68.9824 271.953 69.2988C272.27 69.6035 272.516 69.9668 272.691 70.3887C272.879 70.8105 272.973 71.2617 272.973 71.7422V87ZM278.738 71.7422C278.738 71.2617 278.826 70.8105 279.002 70.3887C279.189 69.9668 279.436 69.6035 279.74 69.2988C280.057 68.9824 280.426 68.7363 280.848 68.5605C281.27 68.373 281.715 68.2793 282.184 68.2793H288.389C288.846 68.2793 289.279 68.3672 289.689 68.543C290.1 68.707 290.457 68.9414 290.762 69.2461C291.078 69.5391 291.33 69.8906 291.518 70.3008C291.717 70.6992 291.822 71.127 291.834 71.584V68.2793H295.297V91.0957C295.297 91.5762 295.203 92.0273 295.016 92.4492C294.84 92.8711 294.594 93.2344 294.277 93.5391C293.973 93.8555 293.609 94.1016 293.188 94.2773C292.766 94.4648 292.314 94.5586 291.834 94.5586H280.9V91.0957H291.834V86.2793H282.184C281.715 86.2793 281.27 86.1914 280.848 86.0156C280.426 85.8281 280.057 85.582 279.74 85.2773C279.436 84.9609 279.189 84.5918 279.002 84.1699C278.826 83.748 278.738 83.2969 278.738 82.8164V71.7422ZM291.834 82.8164V71.7422H282.184V82.8164H291.834ZM317.252 83.5371C317.252 84.0176 317.158 84.4688 316.971 84.8906C316.795 85.3125 316.549 85.6816 316.232 85.998C315.928 86.3027 315.564 86.5488 315.143 86.7363C314.732 86.9121 314.287 87 313.807 87H304.508C304.039 87 303.594 86.9121 303.172 86.7363C302.75 86.5488 302.381 86.3027 302.064 85.998C301.76 85.6816 301.514 85.3125 301.326 84.8906C301.15 84.4688 301.062 84.0176 301.062 83.5371V71.7422C301.062 71.2617 301.15 70.8105 301.326 70.3887C301.514 69.9668 301.76 69.6035 302.064 69.2988C302.381 68.9824 302.75 68.7363 303.172 68.5605C303.594 68.373 304.039 68.2793 304.508 68.2793H313.807C314.287 68.2793 314.732 68.373 315.143 68.5605C315.564 68.7363 315.928 68.9824 316.232 69.2988C316.549 69.6035 316.795 69.9668 316.971 70.3887C317.158 70.8105 317.252 71.2617 317.252 71.7422V83.5371ZM304.508 71.7422V83.5371H313.807V71.7422H304.508Z" fill="white"/>
</svg>
