<svg width="30" height="29" viewBox="0 0 30 29" fill="none" xmlns="http://www.w3.org/2000/svg">
<path d="M28.8634 12.0401C29.4321 12.138 29.8484 12.6321 29.8484 13.2097V15.7524C29.8484 16.33 29.4321 16.8241 28.8634 16.922L26.4992 17.3292C26.2259 18.4009 25.8045 19.4103 25.2545 20.3371L26.6388 22.2972C26.9717 22.7691 26.9172 23.4131 26.5085 23.8212L24.7113 25.6194C24.2533 26.0599 23.6241 26.0633 23.1882 25.7498L21.2293 24.3647C20.303 24.915 19.2941 25.3366 18.2231 25.6101L17.8162 27.9757C17.7174 28.5464 17.2236 28.963 16.6456 28.963H14.1042C13.527 28.963 13.0332 28.5464 12.9353 27.9774L12.5284 25.6118C11.4574 25.3383 10.4485 24.9167 9.52223 24.3664L7.56325 25.7515C7.10863 26.076 6.47096 26.0437 6.04017 25.6211L4.24295 23.8229C3.8343 23.414 3.77981 22.7709 4.1127 22.2989L5.49701 20.3388C4.94703 19.412 4.52561 18.4026 4.25232 17.3309L1.8881 16.9237C1.31854 16.8249 0.902222 16.3309 0.902222 15.7524V13.2097C0.902222 12.6321 1.31854 12.138 1.88724 12.0401L4.25147 11.6329C4.52475 10.5613 4.94618 9.55182 5.49615 8.625L4.11185 6.66489C3.77896 6.19296 3.83345 5.54896 4.2421 5.14093L6.03932 3.34267C6.54673 2.84944 7.20483 2.95422 7.5624 3.21233L9.52138 4.59745C10.4477 4.04715 11.4565 3.62548 12.5275 3.35204L12.9345 0.986444C13.0332 0.416556 13.527 0 14.1051 0H16.6464C17.2236 0 17.7174 0.416555 17.8153 0.985592L18.2223 3.35119C19.2933 3.62463 20.3021 4.0463 21.2284 4.59659L23.1874 3.21148C23.7127 2.85882 24.3376 2.97126 24.7105 3.34182L26.5077 5.14007C26.9163 5.54896 26.9708 6.19211 26.6379 6.66404L25.2536 8.62415C25.8036 9.55096 26.225 10.5604 26.4983 11.632L28.8634 12.0401ZM15.3753 20.4061C18.6454 20.4061 21.2965 17.7534 21.2965 14.4815C21.2965 11.2095 18.6454 8.55685 15.3753 8.55685C12.1053 8.55685 9.45412 11.2095 9.45412 14.4815C9.45412 17.7534 12.1053 20.4061 15.3753 20.4061Z" fill="white"/>
</svg>
