<svg width="30" height="26" viewBox="0 0 30 26" fill="none" xmlns="http://www.w3.org/2000/svg">
<path d="M11.7443 0.059C11.3103 0.0614046 10.8702 0.0882816 10.4264 0.141482C5.60971 0.718561 1.71187 4.39483 1.00418 9.02962C0.658357 11.2956 1.13584 13.4321 2.09321 15.285L0.913196 19.9067C0.869514 20.0774 0.872229 20.2561 0.921079 20.4255C0.969928 20.5949 1.06326 20.7493 1.19204 20.8737C1.32082 20.9982 1.4807 21.0884 1.6562 21.1357C1.8317 21.1831 2.01689 21.1859 2.19385 21.1439L6.98698 20.0064C8.90715 20.9296 11.1216 21.3892 13.4688 21.0548C18.2699 20.371 22.078 16.6108 22.676 11.9631C23.4485 5.96698 18.9273 0.76153 13.0277 0.124188C12.6063 0.0786633 12.1783 0.0565954 11.7443 0.059ZM24.1675 6.5352C24.8098 8.33342 25.0211 10.2746 24.7741 12.2158C24.0612 17.7876 19.537 22.2555 13.7776 23.0729C13.1283 23.1683 12.4722 23.2166 11.8228 23.2166C11.477 23.2166 11.1238 23.2028 10.7779 23.1687C12.3378 24.5582 14.3355 25.5053 16.5305 25.8254C18.8173 26.1456 21.0901 25.7983 23.1157 24.7971L27.8027 25.9146C27.8874 25.935 27.9717 25.9412 28.0564 25.9412C28.3316 25.9412 28.6073 25.8394 28.8049 25.6418C29.066 25.3898 29.1722 25.0221 29.0875 24.6747L27.9295 20.1514C28.9671 18.1966 29.3339 16.01 28.9951 13.7963C28.5293 10.7584 26.7155 8.14951 24.1675 6.5352Z" fill="white"/>
</svg>
