<svg width="132" height="50" viewBox="0 0 132 50" fill="none" xmlns="http://www.w3.org/2000/svg">
<circle opacity="0.1" cx="10.3456" cy="10.3456" r="10.3456" fill="#43D9AD"/>
<circle opacity="0.2" cx="10.3456" cy="10.3456" r="7.34558" fill="#43D9AD"/>
<circle cx="10.3456" cy="10.3456" r="4" fill="#43D9AD"/>
<circle opacity="0.1" cx="10.3456" cy="38.8458" r="10.3456" fill="#43D9AD"/>
<circle opacity="0.2" cx="10.3456" cy="38.8458" r="7.34558" fill="#43D9AD"/>
<circle cx="10.3456" cy="38.8458" r="4" fill="#43D9AD"/>
<circle opacity="0.1" cx="38.038" cy="10.3456" r="10.3456" fill="#43D9AD"/>
<circle opacity="0.2" cx="38.038" cy="10.3456" r="7.34558" fill="#43D9AD"/>
<circle cx="38.038" cy="10.3456" r="4" fill="#43D9AD"/>
<circle opacity="0.1" cx="38.038" cy="38.8458" r="10.3456" fill="#43D9AD"/>
<circle opacity="0.2" cx="38.038" cy="38.8458" r="7.34558" fill="#43D9AD"/>
<circle cx="38.038" cy="38.8458" r="4" fill="#43D9AD"/>
<circle opacity="0.1" cx="65.7303" cy="10.3456" r="10.3456" fill="#43D9AD"/>
<circle opacity="0.2" cx="65.7303" cy="10.3456" r="7.34558" fill="#43D9AD"/>
<circle cx="65.7303" cy="10.3456" r="4" fill="#43D9AD"/>
<g opacity="0.3">
<circle opacity="0.1" cx="65.7303" cy="38.8458" r="10.3456" fill="#43D9AD"/>
<circle opacity="0.2" cx="65.7303" cy="38.8458" r="7.34558" fill="#43D9AD"/>
<circle cx="65.7303" cy="38.8458" r="4" fill="#43D9AD"/>
</g>
<circle opacity="0.1" cx="93.4227" cy="10.3456" r="10.3456" fill="#43D9AD"/>
<circle opacity="0.2" cx="93.4227" cy="10.3456" r="7.34558" fill="#43D9AD"/>
<circle cx="93.4227" cy="10.3456" r="4" fill="#43D9AD"/>
<g opacity="0.3">
<circle opacity="0.1" cx="93.4227" cy="38.8458" r="10.3456" fill="#43D9AD"/>
<circle opacity="0.2" cx="93.4227" cy="38.8458" r="7.34558" fill="#43D9AD"/>
<circle cx="93.4227" cy="38.8458" r="4" fill="#43D9AD"/>
</g>
<circle opacity="0.1" cx="121.115" cy="10.3456" r="10.3456" fill="#43D9AD"/>
<circle opacity="0.2" cx="121.115" cy="10.3456" r="7.34558" fill="#43D9AD"/>
<circle cx="121.115" cy="10.3456" r="4" fill="#43D9AD"/>
<g opacity="0.3">
<circle opacity="0.1" cx="121.115" cy="38.8458" r="10.3456" fill="#43D9AD"/>
<circle opacity="0.2" cx="121.115" cy="38.8458" r="7.34558" fill="#43D9AD"/>
<circle cx="121.115" cy="38.8458" r="4" fill="#43D9AD"/>
</g>
</svg>
