<svg width="32" height="37" viewBox="0 0 32 37" fill="none" xmlns="http://www.w3.org/2000/svg">
<path d="M8.44988 0C5.01222 0 0 6.6693 0 15.0638C0 17.6936 1.86308 21.3333 3.91198 21.3333C8.01467 21.3333 8.78729 16.8826 16 16.8826C23.2127 16.8826 23.9853 21.3333 28.088 21.3333C30.1369 21.3333 32 17.6936 32 15.0638C32 6.6693 26.9878 0 23.5501 0C20.1125 0 19.4377 2.54204 16 2.54204C12.5623 2.54204 11.8875 0 8.44988 0ZM23.198 4.92308C23.3007 4.90204 23.4034 4.92308 23.511 4.92308C24.3814 4.92308 25.0758 5.66469 25.0758 6.60618C25.0758 7.54767 24.3814 8.28928 23.511 8.28928C22.6406 8.28928 21.9462 7.54767 21.9462 6.60618C21.9462 5.78567 22.4792 5.08087 23.198 4.92308ZM7.23716 5.2597H9.74083V7.95266H12.2445V10.6456H9.74083V13.3386H7.23716V10.6456H4.7335V7.95266H7.23716V5.2597ZM20.6944 7.61604C20.7971 7.595 20.8998 7.61604 21.0073 7.61604C21.8826 7.61604 22.5721 8.35766 22.5721 9.29914C22.5721 10.2406 21.8826 10.9822 21.0073 10.9822C20.132 10.9822 19.4425 10.2354 19.4425 9.29914C19.4425 8.47863 19.9707 7.77383 20.6944 7.61604ZM25.7017 7.61604C25.8044 7.595 25.9071 7.61604 26.0147 7.61604C26.89 7.61604 27.5795 8.35766 27.5795 9.29914C27.5795 10.2406 26.89 10.9822 26.0147 10.9822C25.1394 10.9822 24.4499 10.2406 24.4499 9.29914C24.4499 8.47863 24.978 7.77383 25.7017 7.61604ZM23.198 10.309C23.3007 10.288 23.4034 10.309 23.511 10.309C24.3863 10.309 25.0758 11.0506 25.0758 11.9921C25.0758 12.9336 24.3814 13.6752 23.511 13.6752C22.6406 13.6752 21.9462 12.9336 21.9462 11.9921C21.9462 11.1663 22.4792 10.4668 23.198 10.309Z" fill="#FFFDFD"/>
</svg>
