<svg width="31" height="26" viewBox="0 0 31 26" fill="none" xmlns="http://www.w3.org/2000/svg">
<path d="M6.23413 0.259277C6.11996 0.259277 6.01135 0.302835 5.93244 0.379178C5.85352 0.45552 5.81102 0.558843 5.81438 0.665093C5.81895 0.804444 5.8678 1.60066 5.95211 2.62039H1.1971C0.965393 2.62039 0.777344 2.79668 0.777344 3.01391C0.777344 11.688 7.69147 14.6619 8.85267 15.1008C10.0041 17.5468 11.5911 19.5471 13.7717 20.3426C11.4224 21.3191 10.6355 23.7736 10.4235 24.6574H9.59216C9.36045 24.6574 9.17241 24.8337 9.17241 25.0509C9.17241 25.2682 9.36045 25.4445 9.59216 25.4445H22.1847C22.4165 25.4445 22.6045 25.2682 22.6045 25.0509C22.6045 24.8337 22.4165 24.6574 22.1847 24.6574H21.3534C21.1414 23.7736 20.3545 21.3191 18.0053 20.3426C20.1858 19.5471 21.7728 17.5468 22.9242 15.1008C24.0828 14.6628 30.9996 11.6896 30.9996 3.01391C30.9996 2.79668 30.8115 2.62039 30.5798 2.62039H25.8248C25.9091 1.60066 25.958 0.804444 25.9625 0.665093C25.9659 0.558843 25.9234 0.45552 25.8445 0.379178C25.7656 0.302835 25.6569 0.259277 25.5428 0.259277H6.23413ZM1.62177 3.40743H6.02262C6.28952 6.13227 6.91562 10.3569 8.39685 14.0263C6.38158 13.0494 1.79714 10.1124 1.62177 3.40743ZM25.7543 3.40743H30.1551C29.9821 10.2122 25.3904 13.0924 23.3735 14.0401C24.8588 10.3677 25.487 6.13575 25.7543 3.40743ZM15.8885 5.76854C17.2795 5.76854 18.407 6.82553 18.407 8.12965C18.407 9.43377 17.2795 10.4908 15.8885 10.4908C14.4974 10.4908 13.3699 9.43377 13.3699 8.12965C13.3699 6.82553 14.4974 5.76854 15.8885 5.76854Z" fill="white"/>
</svg>
